<?xml version="1.0" encoding="UTF-8"?>
<svg id="Camada_2" data-name="Camada 2" xmlns="http://www.w3.org/2000/svg" viewBox="0 0 224.23 162.16">
  <defs>
    <style>
      .cls-1 {
        fill: #08003f;
      }

      .cls-1, .cls-2 {
        stroke-width: 0px;
      }

      .cls-2 {
        fill: #fff;
      }
    </style>
  </defs>
  <g id="Camada_1-2" data-name="Camada 1">
    <g>
      <path class="cls-1" d="M224.23,83.06c0-27.02-7.05-47.62-21.13-61.8C189.01,7.1,170.76,0,148.34,0H0c14.37,0,25.87,5.61,34.5,16.81,8.62,11.21,12.94,23.08,12.94,35.6v80.09c0,7.91,2.44,14.83,7.33,20.76,4.88,5.93,11.06,8.9,18.54,8.9h75.03c22.42,0,40.67-6.42,54.76-19.28,14.08-12.85,21.13-32.79,21.13-59.82Z"/>
      <path class="cls-2" d="M168.62,78.74c1.29,20.43-15.55,37.27-35.98,35.98-16.85-1.06-30.51-14.73-31.58-31.58-1.29-20.43,15.55-37.27,35.98-35.98,16.85,1.06,30.51,14.73,31.58,31.58Z"/>
      <polygon class="cls-1" points="119.51 134.22 113 130.49 140.91 81.85 144.97 89.84 119.51 134.22"/>
      <polygon class="cls-1" points="126.33 147.8 119.82 144.07 148.16 94.67 152.47 102.24 126.33 147.8"/>
      <path class="cls-1" d="M141.91,79.95l1.2-28.04-10.2,17.82.03.02-18.97,33.45c-1.14,2-2.46,3.32-3.98,3.94-1.52.62-3.06.36-4.64-.8-1.57-1.15-2.42-2.62-2.54-4.42-.12-1.79.38-3.73,1.51-5.8l-5.64-3.56c-2.35,4.14-3.73,7.2-3.07,11.09.66,3.88,2.63,7.03,5.92,9.44,3.29,2.41,6.63,3.15,10.01,2.23,3.38-.93,6.25-3.46,8.6-7.6l18.95-33.41,2.82,5.64Z"/>
    </g>
  </g>
</svg>