<?xml version="1.0" encoding="UTF-8"?>
<svg id="Camada_2" data-name="Camada 2" xmlns="http://www.w3.org/2000/svg" viewBox="0 0 460.73 212.96">
  <defs>
    <style>
      .cls-1 {
        isolation: isolate;
      }

      .cls-2 {
        fill: #08003f;
        stroke-width: 0px;
      }
    </style>
  </defs>
  <g id="Camada_1-2" data-name="Camada 1">
    <g class="cls-1">
      <g class="cls-1">
        <path class="cls-2" d="M132.2,112.34c0,9.21-2.07,16.99-6.2,23.33-4.13,6.34-9.39,11.48-15.76,15.4-6.38,3.93-13.48,6.76-21.31,8.49-7.83,1.73-15.44,2.6-22.83,2.6s-14.46-.76-22.07-2.27c-7.61-1.51-14.6-4.04-20.98-7.59-6.38-3.55-11.71-8.23-15.98-14.04-4.28-5.81-6.63-13.02-7.07-21.63,0-1.36.47-2.49,1.41-3.4.94-.91,2.07-1.36,3.37-1.36h28.92c.87,0,1.63.08,2.28.23.65.15,1.27.38,1.85.68,1.01.61,2.25,1.66,3.7,3.17,2.32,4.83,5.76,8.12,10.33,9.85,4.57,1.74,9.31,2.6,14.24,2.6,2.17,0,4.67-.15,7.5-.45,2.83-.3,5.44-.94,7.83-1.93,2.39-.98,4.46-2.41,6.2-4.3,1.74-1.89,2.61-4.34,2.61-7.36,0-4.08-1.45-7.02-4.35-8.83-2.9-1.81-5.95-3.25-9.13-4.3-2.47-.91-5.4-1.77-8.81-2.61-3.41-.83-7.36-1.7-11.85-2.6-6.67-1.36-13.12-3.13-19.35-5.32-6.23-2.19-11.78-5.1-16.63-8.72-4.86-3.62-8.77-8.19-11.74-13.7-2.97-5.51-4.46-12.27-4.46-20.27,0-9.97,2.64-18.53,7.94-25.71,5.29-7.17,12.21-12.64,20.76-16.42C41.89,1.96,52.54,0,64.58,0c4.78,0,9.75.42,14.89,1.25,5.14.83,10.14,2.19,15,4.08,4.85,1.89,9.38,4.38,13.59,7.47,4.2,3.1,7.83,6.83,10.87,11.21,4.93,6.65,7.61,13.36,8.04,20.16,0,1.21-.47,2.34-1.41,3.4-.94,1.06-1.99,1.59-3.15,1.59h-30.44c-3.04,0-5.44-1.36-7.18-4.08-.87-3.17-3.12-5.89-6.74-8.15-3.91-2.11-8.41-3.17-13.48-3.17-2.17,0-4.39.15-6.63.45-2.25.3-4.31.98-6.2,2.04-1.89,1.06-3.41,2.46-4.57,4.19-1.16,1.74-1.74,3.96-1.74,6.68,0,4.23,2.17,7.63,6.52,10.19,4.35,2.42,12.46,4.91,24.35,7.47,6.81,1.36,13.59,2.98,20.33,4.87,6.74,1.89,12.72,4.57,17.94,8.04,5.22,3.48,9.46,7.97,12.72,13.48,3.26,5.51,4.89,12.57,4.89,21.18Z"/>
      </g>
      <g class="cls-1">
        <path class="cls-2" d="M293.1,159.9h-30.66c-4.06,0-6.96-1.96-8.7-5.89l-22.18-45.3c-1.3-2.41-3.26-3.62-5.87-3.62h-28.48c3.62,0,6.49,1.32,8.59,3.96,2.1,2.64,3.15,5.32,3.15,8.04v37.37c0,1.66-.51,2.94-1.52,3.85-1.02,1.06-2.32,1.58-3.91,1.58h-29.79c-1.45,0-2.72-.57-3.8-1.7-1.09-1.13-1.63-2.38-1.63-3.74V21.74c0-5.58,1.88-10.23,5.65-13.93,3.77-3.7,8.19-5.55,13.26-5.55h46.1c8.12,0,15.83.91,23.16,2.72,7.32,1.81,13.77,4.76,19.35,8.83,5.58,4.08,10.04,9.4,13.37,15.97,3.33,6.57,5,14.61,5,24.12s-1.96,17.21-5.87,24.46-9.71,13.14-17.39,17.67c-1.16.76-1.78,1.66-1.85,2.72-.07,1.06.11,1.89.54,2.49l27.4,51.64c.43.91.65,1.74.65,2.49,0,1.21-.47,2.26-1.41,3.17-.95.91-2,1.36-3.15,1.36ZM252.22,53.68c0-6.19-1.78-10.91-5.33-14.16-3.55-3.25-8.15-4.87-13.81-4.87h-37.4c3.62,0,6.52,1.29,8.7,3.85,2.17,2.57,3.26,5.29,3.26,8.15v18.34c0,1.81.62,3.4,1.85,4.76,1.23,1.36,2.79,2.04,4.67,2.04h18.92c5.65,0,10.25-1.47,13.81-4.42,3.55-2.94,5.33-7.51,5.33-13.7Z"/>
      </g>
      <g class="cls-1">
        <path class="cls-2" d="M456.17,1.81c1.16,0,2.21.45,3.15,1.36.94.91,1.41,1.96,1.41,3.17,0,1.06-.07,1.74-.22,2.04l-43.92,144.5c-.44,1.66-1.38,3.25-2.83,4.76-1.3,1.21-3.34,1.81-6.09,1.81h-34.79c-2.75,0-4.78-.6-6.09-1.81-1.45-1.36-2.47-2.94-3.04-4.76L320.06,8.38l-.44-2.04c0-1.21.44-2.27,1.3-3.17,1.01-.91,2.17-1.36,3.48-1.36h28.27c2.32,0,4.13.6,5.44,1.81,1.3,1.36,2.17,2.72,2.61,4.08l28.48,98.3c0,.61.36.91,1.09.91.58,0,.87-.3.87-.91l28.7-98.3c.58-1.96,1.59-3.43,3.04-4.42,1.45-.98,3.12-1.47,5-1.47h28.27Z"/>
      </g>
    </g>
    <g class="cls-1">
      <g class="cls-1">
        <path class="cls-2" d="M15.41,183.35h14.08v2.26h-11.94v10.65h10.57v2.22h-10.57v11.82h12.25v2.26h-14.4v-29.21Z"/>
        <path class="cls-2" d="M41.11,183.35h2.07l9.87,16.3,9.87-16.3h2.07v29.21h-2.18v-18.16c0-2.46.04-4.8.07-6.94h-.07c-1.19,2.06-2.53,4.32-3.79,6.42l-6,9.88-6-9.88c-1.26-2.1-2.6-4.36-3.79-6.42h-.07c.04,2.14.07,4.48.07,6.94v18.16h-2.11v-29.21Z"/>
        <path class="cls-2" d="M77.58,183.35h7.69c2.77,0,4.77.4,6.53,1.82,1.79,1.41,2.95,3.87,2.95,6.82s-1.16,5.37-2.95,6.78c-1.76,1.45-3.76,1.86-6.53,1.86h-5.55v11.94h-2.14v-29.21ZM85.2,198.39c2.28,0,3.83-.28,5.2-1.33,1.33-1.05,2.21-2.91,2.21-5.08s-.88-4.03-2.21-5.08c-1.37-1.05-2.91-1.29-5.2-1.29h-5.48v12.79h5.48Z"/>
        <path class="cls-2" d="M105.56,183.35h7.83c2.63,0,4.53.36,6.18,1.7,1.69,1.33,2.77,3.63,2.77,6.46,0,4.24-2.53,7.34-6.5,7.91l8.18,13.15h-2.56l-8.04-12.91h-5.72v12.91h-2.14v-29.21ZM113.53,197.47c1.9,0,3.3-.2,4.6-1.21,1.3-1.01,2.07-2.7,2.07-4.68s-.77-3.79-2.07-4.76c-1.3-1.01-2.67-1.21-4.77-1.21h-5.65v11.86h5.83Z"/>
        <path class="cls-2" d="M134.31,183.35h14.08v2.26h-11.94v10.65h10.57v2.22h-10.57v11.82h12.25v2.26h-14.4v-29.21Z"/>
        <path class="cls-2" d="M160.01,183.35h14.08v2.26h-11.94v10.65h10.57v2.22h-10.57v11.82h12.25v2.26h-14.4v-29.21Z"/>
        <path class="cls-2" d="M185.7,183.35h2.04l11.62,17.75c1.58,2.42,3.19,4.96,4.77,7.46h.07c-.04-2.91-.04-6.01-.04-9.04v-16.18h2.07v29.21h-2.04l-11.59-17.75c-1.58-2.42-3.23-4.96-4.81-7.46h-.07c.04,2.74.07,5.81.07,8.75v16.46h-2.11v-29.21Z"/>
        <path class="cls-2" d="M218.88,183.35h6c4.28,0,7.76.85,10.64,3.39,2.88,2.5,4.53,6.58,4.53,11.22s-1.65,8.71-4.53,11.21c-2.88,2.54-6.36,3.39-10.64,3.39h-6v-29.21ZM233.94,207.63c2.49-2.1,3.97-5.61,3.97-9.68s-1.47-7.58-3.97-9.68c-2.49-2.06-5.37-2.66-9.16-2.66h-3.76v24.69h3.76c3.79,0,6.67-.6,9.16-2.66Z"/>
        <path class="cls-2" d="M251.07,183.35h2.14v29.21h-2.14v-29.21Z"/>
        <path class="cls-2" d="M265.84,183.35h2.07l9.87,16.3,9.87-16.3h2.07v29.21h-2.18v-18.16c0-2.46.04-4.8.07-6.94h-.07c-1.19,2.06-2.53,4.32-3.79,6.42l-6,9.88-6-9.88c-1.26-2.1-2.6-4.36-3.79-6.42h-.07c.04,2.14.07,4.48.07,6.94v18.16h-2.11v-29.21Z"/>
        <path class="cls-2" d="M302.32,183.35h14.08v2.26h-11.94v10.65h10.57v2.22h-10.57v11.82h12.25v2.26h-14.4v-29.21Z"/>
        <path class="cls-2" d="M328.01,183.35h2.04l11.62,17.75c1.58,2.42,3.19,4.96,4.77,7.46h.07c-.04-2.91-.04-6.01-.04-9.04v-16.18h2.07v29.21h-2.04l-11.59-17.75c-1.58-2.42-3.23-4.96-4.81-7.46h-.07c.04,2.74.07,5.81.07,8.75v16.46h-2.11v-29.21Z"/>
      </g>
      <g class="cls-1">
        <path class="cls-2" d="M369.07,185.6h-8.81v-2.26h19.77v2.26h-8.81v26.95h-2.14v-26.95Z"/>
      </g>
      <g class="cls-1">
        <path class="cls-2" d="M388.17,197.95c0-8.39,5.51-15.01,12.82-15.01s12.78,6.62,12.78,15.01-5.48,15.01-12.78,15.01-12.82-6.62-12.82-15.01ZM411.62,197.95c0-7.06-4.49-12.71-10.64-12.71s-10.67,5.65-10.67,12.71,4.49,12.71,10.67,12.71,10.64-5.65,10.64-12.71Z"/>
        <path class="cls-2" d="M431.52,210.66c3.58,0,6-1.98,6-5.69,0-2.1-.7-3.55-2.53-4.68-1.83-1.13-5.41-1.82-7.69-3.07-2.25-1.25-3.58-3.23-3.58-6.54,0-4.84,3.12-7.75,7.87-7.75,2.32,0,4.99.73,6.92,2.1v2.66c-2.07-1.69-4.74-2.46-6.95-2.46-3.44,0-5.72,1.86-5.72,5.29,0,2.3.91,3.71,2.88,4.72,2,1.05,5.65,1.73,7.79,3.15,2.11,1.41,3.16,3.43,3.16,6.42,0,5.12-3.27,8.15-8.15,8.15-2.53,0-5.48-.85-7.65-2.58v-2.74c2.21,2.1,5.23,3.03,7.65,3.03Z"/>
      </g>
    </g>
  </g>
</svg>