<?xml version="1.0" encoding="UTF-8"?>
<svg id="Camada_2" data-name="Camada 2" xmlns="http://www.w3.org/2000/svg" viewBox="0 0 565.78 179.04">
  <defs>
    <style>
      .cls-1 {
        fill: #ffe200;
      }
    </style>
  </defs>
  <g id="Camada_1-2" data-name="Camada 1">
    <g>
      <g>
        <path d="M20.46,179.04C7.17,179.04.35,172.56.01,159.6c-.01-.56.45-1.02,1.01-1.02h3.12c.54,0,.98.44,1,.98.32,9.57,5.43,14.36,15.33,14.36h51.15c8.46,0,15.34-6.86,15.35-15.32,0-10.25-5.11-15.37-15.35-15.37H20.46c-11.24,0-20.42-9.07-20.46-20.31-.05-13.74,6.77-20.62,20.46-20.62h51.15c13.29,0,20.11,6.48,20.45,19.44.01.56-.45,1.02-1.01,1.02h-3.12c-.54,0-.98-.44-1-.98-.32-9.57-5.43-14.36-15.33-14.36H20.46c-8.46,0-15.34,6.86-15.35,15.32,0,10.25,5.11,15.37,15.35,15.37h51.15c11.24,0,20.42,9.07,20.46,20.31.05,13.74-6.77,20.61-20.46,20.61H20.46Z"/>
        <path d="M168.98,158.58h-58.63c-.35,0-.67.18-.85.47l-12.15,19.52c-.18.29-.5.47-.85.47h-1.83c-1.57,0-2.53-1.73-1.7-3.06l42.44-68.14c1.96-3.14,6.53-3.14,8.49,0l42.44,68.14c.83,1.33-.13,3.06-1.7,3.06h-1.83c-.35,0-.67-.18-.85-.47l-12.15-19.52c-.18-.29-.5-.47-.85-.47ZM165.41,151.93l-24.9-39.97c-.39-.63-1.31-.63-1.7,0l-24.9,39.97c-.41.67.06,1.53.85,1.53h49.8c.78,0,1.26-.86.85-1.53Z"/>
        <path d="M262.65,102.31c11.3,0,20.46,9.17,20.46,20.47,0,8.83-2.85,14.79-8.54,17.89,5.7,3.1,8.54,9.07,8.54,17.9v18.46c0,1.1-.9,2-2,2h-2.12c-.55,0-1-.45-1-1v-19.46c0-8.47-6.87-15.35-15.35-15.35h-65.5c-.55,0-1,.45-1,1v33.81c0,.55-.45,1-1,1h-2.12c-1.1,0-2-.9-2-2v-69.73c0-2.76,2.24-5,5-5h66.61ZM278,122.75c0-8.46-6.88-15.32-15.35-15.32h-65.5c-.55,0-1,.45-1,1v28.69c0,.55.45,1,1,1h65.5c10.24,0,15.35-5.12,15.35-15.37Z"/>
        <path d="M364.01,158.58h-58.63c-.35,0-.67.18-.85.47l-12.15,19.52c-.18.29-.5.47-.85.47h-1.83c-1.57,0-2.53-1.73-1.7-3.06l42.45-68.14c1.96-3.14,6.53-3.14,8.49,0l42.44,68.14c.83,1.33-.13,3.06-1.7,3.06h-1.83c-.35,0-.67-.18-.85-.47l-12.15-19.52c-.18-.29-.5-.47-.85-.47ZM360.44,151.93l-24.9-39.97c-.39-.63-1.31-.63-1.7,0l-24.9,39.97c-.41.67.06,1.53.85,1.53h49.8c.78,0,1.26-.86.85-1.53Z"/>
        <path d="M389.19,179.04h-2.12c-.55,0-1-.45-1-1v-73.73c0-1.1.9-2,2-2h2.12c.55,0,1,.45,1,1v73.73c0,1.1-.9,2-2,2Z"/>
        <path d="M438.73,173.51l-43.4-69.66c-.41-.67.06-1.53.85-1.53h3.07c.69,0,1.33.36,1.7.94l41.17,66.13c.39.63,1.31.63,1.7,0l41.17-66.13c.37-.59,1.01-.94,1.7-.94h3.07c.78,0,1.26.86.85,1.53l-43.4,69.66c-1.96,3.14-6.53,3.14-8.49,0Z"/>
        <path d="M547.3,158.58h-58.63c-.35,0-.67.18-.85.47l-12.15,19.52c-.18.29-.5.47-.85.47h-1.83c-1.57,0-2.53-1.73-1.7-3.06l42.45-68.14c1.96-3.14,6.53-3.14,8.49,0l43.4,69.66c.41.67-.06,1.53-.85,1.53h-3.07c-.69,0-1.33-.36-1.7-.94l-11.86-19.05c-.18-.29-.5-.47-.85-.47ZM543.73,151.93l-24.9-39.97c-.39-.63-1.31-.63-1.7,0l-24.9,39.97c-.41.67.06,1.53.85,1.53h49.8c.78,0,1.26-.86.85-1.53Z"/>
      </g>
      <g>
        <path d="M92.41,34.55c0-11.3-9.16-20.47-20.46-20.47H5.33c-2.76,0-5,2.24-5,5v66.73c0,2.76,2.24,5,5,5h66.61c11.3,0,20.46-9.17,20.46-20.47,0-8.83-2.85-14.79-8.54-17.89,5.69-3.1,8.54-9.06,8.54-17.89ZM87.29,70.32c0,10.25-5.11,15.37-15.35,15.37H6.45c-.55,0-1-.45-1-1v-28.69c0-.55.45-1,1-1h65.5c8.46,0,15.34,6.86,15.35,15.32ZM71.95,49.88H6.45c-.55,0-1-.45-1-1v-28.69c0-.55.45-1,1-1h65.5c8.46,0,15.34,6.86,15.35,15.32,0,10.25-5.11,15.37-15.35,15.37Z"/>
        <path d="M144.24,19.61c-1.96-3.14-6.53-3.14-8.49,0l-42.65,68.47c-.74,1.19.11,2.72,1.51,2.72h2.22c.35,0,.67-.18.85-.47l12.44-19.99h59.74l12.44,19.99c.18.29.5.47.85.47h1.83c1.57,0,2.53-1.73,1.7-3.06l-42.44-68.14ZM164.9,65.23h-49.8c-.78,0-1.26-.86-.85-1.53l24.9-39.97c.39-.63,1.31-.63,1.7,0l24.9,39.97c.41.67-.06,1.53-.85,1.53Z"/>
        <path d="M283.45,34.55c0-11.3-9.16-20.47-20.46-20.47h-66.61c-2.76,0-5,2.24-5,5v69.73c0,1.1.9,2,2,2h2.12c.55,0,1-.45,1-1v-33.81c0-.55.45-1,1-1h65.5c8.47,0,15.35,6.87,15.35,15.35v19.46c0,.55.45,1,1,1h2.12c1.1,0,2-.9,2-2v-18.46c0-8.83-2.85-14.8-8.54-17.9,5.69-3.1,8.54-9.06,8.54-17.89ZM262.99,49.88h-65.5c-.55,0-1-.45-1-1v-28.69c0-.55.45-1,1-1h65.5c8.46,0,15.34,6.86,15.35,15.32,0,10.25-5.11,15.37-15.35,15.37Z"/>
        <path d="M339.27,19.61c-1.96-3.14-6.53-3.14-8.49,0l-42.45,68.14c-.83,1.33.13,3.06,1.7,3.06h1.83c.35,0,.67-.18.85-.47l12.15-19.52c.18-.29.5-.47.85-.47h58.63c.35,0,.67.18.85.47l12.15,19.52c.18.29.5.47.85.47h1.83c1.57,0,2.53-1.73,1.7-3.06l-42.44-68.14ZM359.93,65.23h-49.8c-.78,0-1.26-.86-.85-1.53l24.9-39.97c.39-.63,1.31-.63,1.7,0l24.9,39.97c.41.67-.06,1.53-.85,1.53Z"/>
        <path d="M469.68,70.34c0,8.48-6.87,15.35-15.35,15.35h-51.15c-8.47,0-15.35-6.87-15.35-15.35v-35.81c0-8.47,6.87-15.34,15.34-15.34h51.15c8.47,0,15.35,6.87,15.35,15.35v11.49h5.12v-11.49c0-11.3-9.16-20.46-20.46-20.46h-51.15c-11.3,0-20.46,9.16-20.46,20.46v35.81c0,11.3,9.16,20.46,20.46,20.46h51.15c11.3,0,20.46-9.16,20.46-20.46v-5.12h-5.12v5.11Z"/>
      </g>
      <path class="cls-1" d="M535.68,34.31v9.31c0,1.03.82,1.86,1.83,1.86h10.68c1.01,0,1.83.83,1.83,1.86v16.31c0,1.03-.82,1.86-1.83,1.86h-10.68c-1.01,0-1.83.83-1.83,1.86v42.08c0,1.03-.82,1.86-1.83,1.86h-37.13c-5.2,0-9.82-.74-13.87-2.23-4.05-1.48-7.43-3.52-10.13-6.12-2.7-2.6-4.75-5.67-6.15-9.23-1.4-3.55-2.1-7.4-2.1-11.53v-1.91c0-6.36,1.74-11.48,5.22-15.35,3.19-3.55,7.14-6.09,11.86-7.64.77-.25,1.31-.96,1.31-1.79v-.08c0-.82-.54-1.53-1.31-1.79-4.72-1.54-8.67-4.06-11.86-7.56-3.48-3.82-5.22-8.91-5.22-15.27v-1.91c0-4.14.7-7.98,2.1-11.53,1.4-3.55,3.45-6.6,6.15-9.15,2.7-2.54,6.08-4.56,10.13-6.04,4.05-1.48,8.67-2.23,13.87-2.23h15.16c1.01,0,1.83.83,1.83,1.86v15.36c0,1.03-.82,1.86-1.83,1.86h-13.13c-4.36,0-7.89,1.03-10.59,3.1-2.7,2.07-4.05,5.28-4.05,9.62v.95c0,4.45,1.35,7.69,4.05,9.7,2.7,2.02,6.23,3.02,10.59,3.02h15.47c1.01,0,1.83-.83,1.83-1.86v-9.31c0-1.03.82-1.86,1.83-1.86h15.98c1.01,0,1.83.83,1.83,1.86ZM516.05,66.44c0-1.03-.82-1.86-1.83-1.86h-15.47c-4.36,0-7.89,1.11-10.59,3.34-2.7,2.23-4.05,5.57-4.05,10.02v.95c0,4.45,1.35,7.79,4.05,10.02,2.7,2.23,6.23,3.34,10.59,3.34h15.47c1.01,0,1.83-.83,1.83-1.86v-23.95Z"/>
    </g>
  </g>
</svg>